<?xml version="1.0" encoding="iso-8859-1"?>
<!-- Generator: Adobe Illustrator 19.0.0, SVG Export Plug-In . SVG Version: 6.00 Build 0)  -->
<svg version="1.1" id="Capa_1" xmlns="http://www.w3.org/2000/svg" xmlns:xlink="http://www.w3.org/1999/xlink" x="0px" y="0px"
	 viewBox="0 0 512 512" style="enable-background:new 0 0 512 512;" xml:space="preserve">
<circle style="fill:#6E87F5;" cx="63.879" cy="448.26" r="53.74"/>
<path style="fill:#F5C86E;" d="M63.879,430.606v-25.598c0-13.352-5.792-26.048-15.876-34.799l0,0
	c-7.183-6.234-12.261-14.537-14.537-23.771l-12.952-52.543C20.514,293.894-21.843,403.746,63.879,430.606z"/>
<rect x="76.952" y="330.34" transform="matrix(0.7071 -0.7071 0.7071 0.7071 -208.2532 213.6415)" style="fill:#737882;" width="153.619" height="55.729"/>
<circle style="fill:#FFFFFF;" cx="63.879" cy="448.26" r="16.586"/>
<path style="fill:#78D2FA;" d="M188.364,284.189l42.603-106.524L501.96,10L334.296,280.993l-106.524,42.603L188.364,284.189z"/>
<path style="fill:#4BB9F5;" d="M207.654,303.479L501.96,10L334.296,280.993l-106.524,42.603L207.654,303.479z"/>
<path d="M419.027,134.059h-0.01c-5.522,0-9.995,4.477-9.995,10s4.482,10,10.005,10s10-4.477,10-10S424.55,134.059,419.027,134.059z"
	/>
<path d="M509.032,2.929c-3.281-3.281-8.387-3.873-12.333-1.433L225.706,169.161c-1.818,1.125-3.229,2.804-4.023,4.791
	L179.842,278.57L72.668,385.742c-0.135,0.135-0.253,0.279-0.379,0.419c-0.509,0.156-1.001,0.355-1.477,0.588
	c-3.175-9.219-8.725-17.558-16.256-24.094c-5.654-4.907-9.591-11.343-11.383-18.612L30.222,291.5
	c-1.045-4.24-4.72-7.311-9.078-7.586c-4.328-0.28-8.39,2.308-9.961,6.382c-0.97,2.515-23.5,62.122-1.615,107.479
	c1.621,3.359,3.458,6.532,5.469,9.553c-20.995,25.016-19.749,62.485,3.77,86.004C30.846,505.37,46.853,512,63.878,512
	c17.026,0,33.032-6.63,45.071-18.669c14.872-14.872,20.834-35.324,17.907-54.678L233.39,332.119l104.619-41.841
	c1.985-0.794,3.665-2.205,4.79-4.024l64.271-103.879c2.906-4.696,1.454-10.859-3.242-13.765c-4.699-2.907-10.859-1.453-13.766,3.243
	l-62.538,101.078l-97.344,38.932l-30.083-30.083l38.932-97.344L471.12,40.84l-39.261,63.457c-2.906,4.696-1.454,10.859,3.242,13.765
	c4.699,2.907,10.86,1.453,13.766-3.243l61.598-99.558C512.906,11.316,512.312,6.21,509.032,2.929z M171.475,365.75l-25.265-25.265
	l14.005-14.005l25.265,25.265L171.475,365.75z M143.327,393.897l-25.265-25.265l14.006-14.006l25.265,25.265L143.327,393.897z
	 M59.221,443.603c1.284-1.284,2.971-1.926,4.657-1.926s3.373,0.642,4.657,1.926c1.244,1.244,1.93,2.898,1.93,4.657
	s-0.686,3.413-1.93,4.657c-2.568,2.568-6.746,2.568-9.314,0c-1.244-1.244-1.93-2.897-1.93-4.657S57.977,444.847,59.221,443.603z
	 M20.855,337.061l2.901,11.77c2.785,11.299,8.903,21.303,17.691,28.93c7.9,6.856,12.431,16.787,12.431,27.247v10.787
	c-11.962-6.164-20.613-14.964-26.269-26.653C19.767,372.933,19.085,353.707,20.855,337.061z M94.807,479.189
	C86.546,487.45,75.562,492,63.878,492c-11.683,0-22.667-4.55-30.929-12.812c-15.397-15.397-16.888-39.51-4.482-56.602
	c4.242,3.681,8.94,6.946,14.088,9.788c-3.416,4.565-5.264,10.082-5.264,15.886c0,7.102,2.766,13.778,7.787,18.799
	c5.184,5.183,11.991,7.774,18.8,7.774s13.616-2.592,18.8-7.774c5.021-5.021,7.787-11.698,7.787-18.799s-2.766-13.778-7.787-18.8
	c-2.594-2.594-5.595-4.538-8.8-5.834v-17.933c7.914,1.849,15.14,5.849,20.929,11.638
	C111.861,434.386,111.861,462.135,94.807,479.189z M108.95,403.189c-4.342-4.342-9.24-8-14.546-10.898l9.516-9.516l25.265,25.265
	l-9.481,9.482C116.875,412.38,113.302,407.542,108.95,403.189z M199.623,337.602l-25.265-25.265l14.005-14.005l25.265,25.265
	L199.623,337.602z"/>
<path d="M227.492,270.327l-0.094,0.093c-3.915,3.895-3.932,10.227-0.037,14.142c1.955,1.964,4.521,2.947,7.09,2.947
	c2.551,0,5.102-0.97,7.053-2.911l0.094-0.093c3.915-3.895,3.932-10.227,0.037-14.142
	C237.738,266.448,231.408,266.432,227.492,270.327z"/>
<path d="M311.716,261.756c5.522,0,10-4.477,10-10v-47.37l61.026-61.027c3.905-3.905,3.905-10.237,0-14.142
	c-3.906-3.905-10.236-3.905-14.143,0l-61.026,61.026h-47.37c-5.522,0-10,4.477-10,10s4.478,10,10,10h27.37l-37.101,37.101
	c-3.905,3.905-3.905,10.237,0,14.143c1.953,1.953,4.512,2.929,7.071,2.929c2.559,0,5.118-0.977,7.071-2.929l37.101-37.101v27.369
	C301.716,257.279,306.194,261.756,311.716,261.756z"/>
<g>
</g>
<g>
</g>
<g>
</g>
<g>
</g>
<g>
</g>
<g>
</g>
<g>
</g>
<g>
</g>
<g>
</g>
<g>
</g>
<g>
</g>
<g>
</g>
<g>
</g>
<g>
</g>
<g>
</g>
</svg>
