<?xml version="1.0" encoding="iso-8859-1"?>
<!-- Generator: Adobe Illustrator 19.0.0, SVG Export Plug-In . SVG Version: 6.00 Build 0)  -->
<svg version="1.1" id="Capa_1" xmlns="http://www.w3.org/2000/svg" xmlns:xlink="http://www.w3.org/1999/xlink" x="0px" y="0px"
	 viewBox="0 0 512 512" style="enable-background:new 0 0 512 512;" xml:space="preserve">
<path style="fill:#D9EEF7;" d="M407.727,283.798c-2.09-3.015-6.341-3.593-9.12-1.197c-8.487,7.318-27.046,19.076-48.735,6.554l0,0
	c-6.001-3.463-9.293-10.317-8.027-17.129c0.966-5.195,1.472-10.551,1.472-16.026s-0.506-10.831-1.472-16.026
	c-1.266-6.812,2.026-13.666,8.027-17.129l0,0c21.689-12.522,40.248-0.764,48.735,6.554c2.779,2.396,7.03,1.818,9.12-1.197
	l63.269-91.301c2.318-3.345-0.3-7.878-4.355-7.543L355.937,138.5c-3.656,0.302-6.282,3.696-5.597,7.3
	c2.094,11.009,2.997,32.961-18.691,45.483l-0.355,0.205c-5.931,3.426-13.328,2.623-18.53-1.832
	c-8.098-6.934-17.48-12.411-27.74-16.026c-6.44-2.269-10.802-8.281-10.8-15.109v-0.392c0-25.045,19.464-35.238,30.044-38.929
	c3.464-1.208,5.089-5.179,3.522-8.496L260.355,10.26c-1.738-3.679-6.973-3.679-8.71,0L204.21,110.702
	c-1.566,3.317,0.059,7.288,3.522,8.496c10.581,3.691,30.044,13.884,30.044,38.929v0.392c0.002,6.828-4.36,12.841-10.8,15.109
	c-10.26,3.615-19.643,9.091-27.74,16.026c-5.202,4.455-12.6,5.259-18.53,1.832l-0.355-0.205
	c-21.689-12.522-20.785-34.473-18.691-45.483c0.685-3.604-1.94-6.998-5.597-7.3l-110.703-9.14c-4.055-0.335-6.673,4.199-4.355,7.543
	l63.269,91.301c2.09,3.015,6.341,3.593,9.12,1.197c8.487-7.318,27.046-19.076,48.735-6.554l0.383,0.221
	c5.906,3.408,8.896,10.185,7.648,16.888c-0.968,5.201-1.475,10.564-1.475,16.045c0,5.482,0.507,10.844,1.475,16.045
	c1.248,6.704-1.742,13.481-7.648,16.888l-0.383,0.221c-21.689,12.522-40.248,0.764-48.735-6.554c-2.779-2.396-7.03-1.818-9.12,1.197
	l-63.269,91.301c-2.318,3.345,0.3,7.878,4.355,7.543l110.703-9.142c3.656-0.302,6.282-3.696,5.597-7.3
	c-2.094-11.009-2.997-32.961,18.691-45.483l0.355-0.205c5.931-3.426,13.328-2.623,18.53,1.832
	c8.098,6.934,17.48,12.411,27.74,16.026c6.44,2.269,10.802,8.281,10.8,15.109v0.392c0,25.044-19.463,35.238-30.044,38.929
	c-3.464,1.208-5.09,5.179-3.523,8.497l47.435,100.443c1.738,3.679,6.973,3.679,8.71,0l47.435-100.443
	c1.567-3.317-0.059-7.288-3.523-8.497c-10.581-3.691-30.044-13.884-30.044-38.929v-0.392c-0.002-6.828,4.36-12.841,10.8-15.109
	c10.26-3.615,19.642-9.091,27.74-16.026c5.202-4.455,12.6-5.259,18.53-1.832l0.355,0.205c21.689,12.522,20.785,34.473,18.691,45.483
	c-0.685,3.604,1.94,6.998,5.597,7.3l110.703,9.142c4.055,0.335,6.673-4.199,4.355-7.543L407.727,283.798z"/>
<path style="fill:#A7BAC6;" d="M256,294.619c-21.295,0-38.619-17.324-38.619-38.619s17.324-38.619,38.619-38.619
	c21.295,0,38.619,17.324,38.619,38.619S277.295,294.619,256,294.619z"/>
<circle style="fill:#446682;" cx="256" cy="256" r="24.62"/>
<path d="M444.814,324.151c-2.358-3.404-7.031-4.253-10.436-1.893c-3.405,2.358-4.252,7.031-1.894,10.436l29.108,42.005
	l-103.627-8.557c1.945-11.764,2.728-37.315-22.563-51.917l-0.358-0.207c-8.604-4.972-19.52-3.914-27.16,2.63
	c-7.524,6.443-16.056,11.372-25.354,14.648c-9.458,3.332-15.812,12.248-15.809,22.184v0.392c0,29.212,22.521,41.31,33.68,45.505
	l-13.669,28.943c-1.769,3.746-0.166,8.216,3.579,9.985c1.035,0.488,2.125,0.72,3.198,0.72c2.811,0,5.507-1.589,6.787-4.299
	l14.274-30.227c1.659-3.515,1.749-7.586,0.247-11.171c-1.495-3.565-4.44-6.339-8.083-7.61c-20.674-7.21-25.014-21.298-25.014-31.847
	v-0.394c-0.001-3.584,2.327-6.813,5.793-8.034c11.054-3.895,21.189-9.75,30.126-17.402c2.818-2.414,6.797-2.83,9.896-1.037
	l0.36,0.208c9.135,5.273,19.164,16.076,15.073,37.586c-0.721,3.789,0.209,7.728,2.549,10.804c2.354,3.095,5.925,5.053,9.799,5.372
	l110.703,9.142c4.799,0.397,9.272-1.947,11.68-6.116c2.407-4.168,2.199-9.216-0.543-13.173L444.814,324.151z"/>
<path d="M282.624,454.587c-3.747-1.769-8.217-0.165-9.985,3.579L256,493.399l-44.402-94.022c11.16-4.196,33.68-16.294,33.68-45.505
	v-0.39c0.003-9.938-6.351-18.854-15.809-22.185c-9.299-3.277-17.83-8.206-25.354-14.65c-7.644-6.542-18.558-7.599-27.164-2.627
	l-0.349,0.202c-25.296,14.604-24.514,40.156-22.568,51.92l-103.627,8.557l59.224-85.464c9.216,7.566,30.949,21.02,56.245,6.416
	l0.385-0.222c8.578-4.948,13.108-14.897,11.272-24.757c-0.895-4.81-1.349-9.746-1.349-14.673c0-4.926,0.454-9.863,1.349-14.672
	c1.836-9.86-2.694-19.81-11.274-24.759l-0.379-0.219c-25.294-14.604-47.033-1.152-56.249,6.414l-59.224-85.464l38.513,3.18
	c4.109,0.334,7.751-2.729,8.092-6.857c0.341-4.128-2.729-7.751-6.857-8.092l-44.176-3.647c-4.796-0.407-9.272,1.947-11.68,6.116
	c-2.407,4.168-2.199,9.216,0.543,13.173l63.269,91.302c2.214,3.194,5.695,5.309,9.552,5.8c3.838,0.492,7.71-0.677,10.63-3.195
	c9.153-7.892,23.538-15.292,40.092-5.736l0.381,0.22c3.079,1.776,4.696,5.401,4.022,9.021c-1.063,5.713-1.603,11.572-1.603,17.417
	c0,5.845,0.539,11.704,1.603,17.418c0.674,3.618-0.943,7.243-4.021,9.019l-0.387,0.223c-16.551,9.557-30.936,2.154-40.088-5.738
	c-2.92-2.519-6.795-3.687-10.63-3.195c-3.856,0.491-7.338,2.605-9.552,5.801L34.84,370.83c-2.741,3.957-2.949,9.005-0.542,13.173
	c2.406,4.169,6.889,6.521,11.68,6.116l110.703-9.142c3.874-0.319,7.445-2.277,9.799-5.372c2.34-3.076,3.27-7.015,2.549-10.804
	c-2.258-11.873-1.477-28.031,15.079-37.589l0.351-0.203c3.104-1.794,7.082-1.378,9.9,1.034c8.937,7.653,19.072,13.509,30.126,17.404
	c3.466,1.221,5.794,4.449,5.793,8.035v0.392c0,19.111-13.603,27.867-25.016,31.848c-3.641,1.271-6.586,4.044-8.081,7.609
	c-1.502,3.585-1.412,7.656,0.247,11.172l47.436,100.442C246.919,509.296,251.187,512,256,512c4.813,0,9.081-2.704,11.138-7.057
	l19.065-40.371C287.971,460.826,286.368,456.356,282.624,454.587z"/>
<path d="M119.989,143.047l34.044,2.811c-1.945,11.764-2.728,37.315,22.563,51.917l0.358,0.207c8.604,4.971,19.519,3.913,27.16-2.63
	c7.525-6.443,16.056-11.372,25.354-14.648c9.458-3.332,15.812-12.248,15.809-22.184v-0.393c0-29.206-22.519-41.307-33.68-45.505
	L256,18.601l44.402,94.021c-11.161,4.198-33.68,16.299-33.68,45.505v0.391c-0.003,9.938,6.351,18.854,15.809,22.185
	c9.299,3.277,17.829,8.206,25.354,14.648c7.643,6.544,18.556,7.601,27.165,2.629l0.349-0.202
	c25.296-14.604,24.514-40.156,22.568-51.92l103.627-8.557l-59.224,85.464c-9.215-7.565-30.951-21.021-56.247-6.415
	c-8.804,5.079-13.487,15.123-11.653,24.995c0.894,4.806,1.347,9.736,1.347,14.655s-0.453,9.85-1.347,14.656
	c-1.834,9.869,2.85,19.914,11.651,24.993c25.296,14.606,47.034,1.153,56.249-6.414l12.129,17.504
	c1.457,2.102,3.795,3.229,6.172,3.229c1.474,0,2.962-0.434,4.265-1.337c3.405-2.358,4.252-7.031,1.893-10.436l-12.938-18.671
	c-2.214-3.194-5.695-5.309-9.552-5.8c-3.834-0.488-7.709,0.677-10.63,3.195c-16.584,14.299-30.953,11.013-40.089,5.737
	c-3.309-1.908-5.077-5.631-4.402-9.261c1.061-5.708,1.599-11.561,1.599-17.397s-0.538-11.689-1.599-17.396
	c-0.675-3.632,1.094-7.354,4.403-9.263c16.554-9.555,30.937-2.153,40.088,5.738c2.92,2.518,6.79,3.683,10.63,3.195
	c3.856-0.491,7.338-2.605,9.552-5.801l63.27-91.301c2.741-3.957,2.949-9.005,0.542-13.173c-2.407-4.17-6.894-6.522-11.68-6.116
	l-110.703,9.142c-3.874,0.319-7.445,2.277-9.799,5.372c-2.341,3.076-3.27,7.015-2.549,10.804
	c4.091,21.51-5.938,32.313-15.079,37.589l-0.351,0.203c-3.104,1.795-7.082,1.378-9.9-1.036
	c-8.938-7.652-19.073-13.507-30.126-17.402c-3.466-1.221-5.794-4.449-5.793-8.035v-0.393c0-19.109,13.604-27.866,25.016-31.848
	c3.641-1.27,6.586-4.043,8.08-7.607c1.503-3.585,1.413-7.657-0.246-11.173L267.137,7.057C265.081,2.704,260.813,0,256,0
	c-4.813,0-9.081,2.704-11.138,7.057L197.428,107.5c-1.659,3.515-1.749,7.587-0.246,11.172c1.494,3.564,4.439,6.338,8.08,7.607
	c20.676,7.214,25.016,21.301,25.016,31.848v0.395c0.001,3.584-2.327,6.813-5.793,8.034c-11.053,3.895-21.188,9.749-30.127,17.402
	c-2.817,2.412-6.795,2.828-9.896,1.037l-0.36-0.208c-16.55-9.555-17.331-25.713-15.073-37.586c0.721-3.789-0.209-7.728-2.549-10.804
	c-2.354-3.095-5.925-5.053-9.799-5.372l-35.457-2.928c-4.108-0.354-7.751,2.729-8.092,6.857
	C112.791,139.083,115.861,142.706,119.989,143.047z"/>
<path d="M256,223.881c-17.711,0-32.119,14.408-32.119,32.119s14.408,32.119,32.119,32.119s32.119-14.408,32.119-32.119
	S273.711,223.881,256,223.881z M256,273.119c-9.439,0-17.119-7.68-17.119-17.119s7.68-17.119,17.119-17.119
	s17.119,7.68,17.119,17.119S265.439,273.119,256,273.119z"/>
<path d="M318.094,256c0-34.238-27.855-62.094-62.094-62.094S193.906,221.762,193.906,256s27.855,62.094,62.094,62.094
	S318.094,290.238,318.094,256z M256,303.094c-25.968,0-47.094-21.126-47.094-47.094s21.126-47.094,47.094-47.094
	s47.094,21.126,47.094,47.094S281.967,303.094,256,303.094z"/>
<path d="M263.5,117.569V66.236c0-4.143-3.357-7.5-7.5-7.5c-4.143,0-7.5,3.357-7.5,7.5v51.333c0,4.143,3.357,7.5,7.5,7.5
	C260.143,125.069,263.5,121.712,263.5,117.569z"/>
<path d="M248.5,394.431v51.333c0,4.143,3.357,7.5,7.5,7.5c4.143,0,7.5-3.357,7.5-7.5v-51.333c0-4.143-3.357-7.5-7.5-7.5
	C251.857,386.931,248.5,390.288,248.5,394.431z"/>
<path d="M95.41,154.623c-3.59-2.071-8.176-0.843-10.245,2.745c-2.071,3.587-0.842,8.174,2.745,10.245l44.456,25.667
	c1.182,0.682,2.471,1.006,3.743,1.006c2.592,0,5.113-1.345,6.502-3.751c2.071-3.587,0.842-8.174-2.745-10.245L95.41,154.623z"/>
<path d="M424.09,344.387l-44.456-25.667c-3.589-2.07-8.175-0.844-10.245,2.745c-2.071,3.587-0.842,8.174,2.745,10.245l44.456,25.667
	c1.182,0.682,2.471,1.006,3.743,1.006c2.592,0,5.113-1.345,6.502-3.751C428.906,351.045,427.677,346.458,424.09,344.387z"/>
<path d="M132.366,318.72L87.91,344.387c-3.587,2.071-4.816,6.658-2.745,10.245c1.39,2.406,3.91,3.751,6.502,3.751
	c1.272,0,2.563-0.324,3.743-1.006l44.456-25.667c3.587-2.071,4.816-6.658,2.745-10.245
	C140.539,317.877,135.952,316.65,132.366,318.72z"/>
<path d="M375.891,194.286c1.272,0,2.563-0.324,3.743-1.006l44.456-25.667c3.587-2.071,4.816-6.658,2.745-10.245
	s-6.66-4.815-10.245-2.745l-44.456,25.667c-3.587,2.071-4.816,6.658-2.745,10.245C370.778,192.941,373.299,194.286,375.891,194.286z
	"/>
<g>
</g>
<g>
</g>
<g>
</g>
<g>
</g>
<g>
</g>
<g>
</g>
<g>
</g>
<g>
</g>
<g>
</g>
<g>
</g>
<g>
</g>
<g>
</g>
<g>
</g>
<g>
</g>
<g>
</g>
</svg>
