<?xml version="1.0" encoding="iso-8859-1"?>
<!-- Generator: Adobe Illustrator 18.1.1, SVG Export Plug-In . SVG Version: 6.00 Build 0)  -->
<svg version="1.1" id="Capa_1" xmlns="http://www.w3.org/2000/svg" xmlns:xlink="http://www.w3.org/1999/xlink" x="0px" y="0px"
	 viewBox="0 0 24.115 24.115" style="enable-background:new 0 0 24.115 24.115;" xml:space="preserve">
<g>
	<g>
		<polygon style="fill:#030104;" points="15.717,16.082 15.709,16.085 15.714,16.09 		"/>
		<path style="fill:#030104;" d="M23.292,16.93c-0.18-0.839-0.554-1.427-0.982-2.199c-0.854-0.895-1.759-1.612-3.134-1.824
			c-0.669-0.104-1.095-0.033-1.355-0.468c-0.277-0.46-0.147-1.144,0-1.544c0.114-0.301,0.295-0.571,0.454-0.85
			c0.145-0.253,0.197-0.524,0.352-0.745c0.117-0.169,0.112-0.377,0.173-0.567c0.049-0.164,0.115-0.288,0.123-0.466
			c0.024-0.374-0.06-0.737-0.027-1.111c-0.103-0.146-0.166-0.332-0.184-0.562c-0.163-0.117-0.25-0.333-0.332-0.467
			c-0.035-0.064-0.087-0.073-0.137-0.142c-0.784-1.043-2.001-1.792-3.37-2.247c-0.897-0.296-1.683-0.396-2.104-1.027
			c-0.339-0.504-0.317-1.08-0.559-1.73c-0.117,0.579-0.085,1.222,0.095,1.781c0.221,0.693,0.665,0.995,1.305,1.259
			c0.78,0.321,1.742,0.731,2.293,1.218c0.193,0.167,0.309,0.291,0.467,0.466c0.295,0.337,0.525,0.679,0.655,1.124
			c0.088,0.305,0.066,0.65-0.015,0.956c-0.031,0.118-0.059,0.244-0.108,0.355c-0.075,0.168-0.183,0.329-0.307,0.464
			c-0.108,0.12-0.171,0.252-0.274,0.376c-0.383,0.466-0.784,0.899-1.073,1.402c-0.117-0.207-0.095-0.396-0.141-0.656
			c-0.024-0.149-0.154-0.403-0.19-0.513c-0.105-0.352-0.182-0.622-0.323-0.89c-0.179-0.34-0.433-0.599-0.662-0.895
			c-0.239-0.312-0.443-0.615-0.724-0.893c-0.201-0.193-0.401-0.425-0.633-0.57c-0.454-0.286-0.887-0.614-1.341-0.903
			c-0.361-0.232-0.737-0.442-1.132-0.621C9.636,4.229,9.205,3.965,8.748,3.738C7.83,2.881,7.126,1.807,7.158,0
			C6.926,0.598,6.985,1.95,7.109,2.522c0.084,0.383,0.225,0.765,0.377,1.079c0.246,0.512,0.686,1.022,1.111,1.396
			c0.416,0.362,0.826,0.799,1.291,1.109c0.38,0.255,0.735,0.543,1.133,0.771c0.303,0.175,0.601,0.363,0.858,0.601
			c0.159,0.146,0.232,0.312,0.31,0.507c0.129,0.302,0.306,0.58,0.391,0.899c0.027,0.086,0.088,0.383,0.095,0.467
			c0.064,0.556-0.078,1.191,0.095,1.775c-1.776-0.136-3.058-0.774-4.302-1.447C8.104,9.322,7.82,8.939,7.581,8.414
			C6.873,6.889,6.736,4.72,5.473,3.879c-0.221-0.15-0.401-0.249-0.7-0.325c-1.365-0.349-3.156,0.012-4.07,0.654
			C1.289,4.2,1.917,4.009,2.575,4.067C3.334,4.134,4.013,4.464,4.586,4.63C5.142,5.173,5.46,5.818,5.661,6.64
			c0.242,0.978,0.34,1.868,0.608,2.668c0.26,0.763,0.644,1.481,1.122,2.103c0.302,0.393,0.707,0.694,1.031,0.983
			c0.552,0.49,1.077,0.82,1.637,1.168c0.323,0.201,0.696,0.388,0.98,0.7c-1.684,0.245-3.486,0.78-5.424,0.469
			c-0.218-0.233-0.472-0.415-0.605-0.702c-0.193-0.406-0.289-0.99-0.33-1.542c-0.078-1.053,0.176-2.604-0.092-3.415
			C4.522,8.893,4.417,8.63,4.397,8.604c-0.036-0.047-0.046-0.035-0.141-0.14C4.168,8.365,4.109,8.335,3.977,8.23
			C3.584,7.917,3.085,7.588,2.433,7.529c0.19,0.221,0.44,0.358,0.609,0.562c0.18,0.212,0.37,0.498,0.464,0.747
			c0.315,0.775-0.146,1.906-0.277,2.946c-0.014,0.118-0.085,0.474-0.092,0.562c-0.083,0.882,0.014,1.683,0.092,2.479
			c0.189,0.364,0.26,0.755,0.467,1.075c0.239,0.368,0.616,0.567,0.89,0.888c0.528,0.159,1.067,0.495,1.732,0.562
			c1.333,0.134,2.778-0.217,4.021-0.279c0.408-0.022,0.967,0.289,1.301,0.482c0.3,0.175,0.585,0.396,0.785,0.687
			c0.102,0.149,0.162,0.309,0.218,0.481c0.031,0.09,0.049,0.164,0.063,0.258c0.015,0.109,0.077,0.202,0.083,0.311
			c0.007,0.087-0.013,0.183-0.013,0.272c0.009,0.24,0.017,0.503,0.087,0.735c0.115,0.218,0.176,0.46,0.281,0.701
			c0.134,0.313,0.323,0.644,0.465,0.842c0.249,0.346,0.485,0.683,0.703,0.982c0.482,0.235,0.833,0.661,1.308,0.889
			c0.181,0.084,0.43,0.121,0.655,0.187c0.222,0.064,0.483,0.164,0.701,0.185c0.648,0.074,1.467,0.011,1.872-0.091
			c1.146-0.287,1.994-0.853,2.621-1.449c0.376-0.359,0.721-0.744,0.981-1.171C23.143,20.239,23.657,18.627,23.292,16.93z
			 M17.962,14.497C17.821,14.669,17.804,14.355,17.962,14.497L17.962,14.497z M14.969,17.304c-0.019,0.089-0.061-0.031-0.05-0.095
			C14.937,17.121,14.979,17.239,14.969,17.304z M14.827,17.491c0.105,0.017,0.064,0.271-0.095,0.185
			C14.736,17.584,14.862,17.617,14.827,17.491z M14.595,18.659c0.085-0.107,0.039,0.272,0.091,0.236
			C14.588,19.064,14.578,18.756,14.595,18.659z M15.809,22.214C15.911,22.072,16.112,22.268,15.809,22.214L15.809,22.214z
			 M17.962,23.009c-0.007-0.1,0.166-0.021,0.232-0.047C18.204,23.063,18.028,22.984,17.962,23.009z M22.169,19.315
			c-0.281,0.412-0.184,0.95-0.56,1.213c0,0.048,0.057,0.037,0.093,0.049c-0.012,0.055-0.247,0.119-0.093,0.187
			c-0.07,0.024-0.171,0.062-0.095,0.234c-0.186-0.114-0.137,0.174-0.186,0.232c-0.021,0.023-0.063-0.079-0.046-0.092
			c-0.059,0.055-0.003,0.11-0.049,0.188c-0.018,0.031-0.145,0.045-0.187,0.092c-0.042,0.049-0.017,0.175-0.092,0.234
			c-0.099,0.076-0.147,0.146-0.14,0.142c-0.025,0.024-0.13,0.135-0.096,0.093c-0.034,0.044-0.19,0.191-0.186,0.187
			c-0.054,0.045-0.239,0.102-0.237,0.095c-0.007,0.009-0.039,0.134-0.046,0.139c-0.034,0.023-0.052-0.091-0.044-0.093
			c-0.102,0.044-0.19,0.204-0.236,0.235c-0.083,0.058-0.327,0.128-0.464,0.185c-0.074,0.03-0.555,0.12-0.704,0.235
			c-0.014,0.01,0.015,0.139,0,0.14c-0.073,0.017-0.014-0.129-0.046-0.14c-0.094-0.036-0.362,0.212-0.513,0.14
			c0.007-0.055,0.085-0.04,0.137-0.047c-0.291-0.168-0.576,0.077-0.885,0.047c-0.148-0.065,0.165-0.047,0.235-0.047
			c-0.387-0.043-0.581-0.285-0.985-0.187c-0.014-0.191,0.064,0.006,0.187-0.046c-0.039-0.055-0.06-0.128-0.046-0.233
			c-0.102,0.034-0.116,0.162-0.187,0.233c-0.197-0.173-0.21-0.254-0.467-0.28c-0.012-0.182,0.038-0.018,0.14-0.049
			c-0.052-0.102-0.183-0.102-0.232,0c-0.014-0.105-0.154-0.336-0.425-0.327c0.01-0.055,0.088-0.04,0.144-0.046
			c-0.103-0.042-0.081-0.199-0.237-0.188c-0.062,0.017-0.002,0.081,0.046,0.092c-0.105,0.088-0.159-0.132-0.091-0.279
			c-0.039,0.193-0.232-0.065-0.046-0.045c-0.088-0.073-0.144-0.169-0.33-0.142c0.002-0.09,0.105-0.269-0.043-0.327
			c-0.123,0.012,0.061,0.081,0,0.188c-0.179-0.151-0.27-0.422-0.239-0.89c-0.133,0.019-0.014,0.268-0.091,0.141
			c-0.031,0-0.063,0-0.095,0c0.162-0.072-0.063-0.32-0.046-0.47c0.054-0.13,0.019-0.481,0-0.792c-0.15,0.035,0.085,0.456-0.14,0.421
			c0.11-0.142,0.021-0.402,0-0.562c0.034-0.077,0.151-0.07,0.14-0.189c0.088,0.008-0.069-0.521-0.044-0.792
			c0.151-0.099,0.176,0.009,0.044-0.095c-0.15-0.055,0.127-0.055,0.188-0.047c-0.015-0.064-0.117-0.039-0.188-0.048
			c-0.15-0.055,0.127-0.052,0.188-0.044c-0.011-0.069-0.137-0.017-0.142-0.096c-0.007-0.198,0.074,0,0.142,0
			c-0.029-0.206,0.298-0.671,0.14-0.935c0.092-0.066,0.141-0.175,0.188-0.281c0.146,0.075-0.056,0.185-0.093,0.233
			c0,0.047,0.056,0.037,0.093,0.048c0.073-0.178,0.231-0.269,0.281-0.469c-0.141-0.018-0.095,0.152-0.141,0.232
			c-0.039,0.011-0.042-0.017-0.044-0.045c0.01-0.039-0.02-0.044-0.047-0.046c0.008-0.055,0.047-0.026,0.047,0
			c0.076-0.05,0.049-0.199,0.094-0.282c0.07,0.02,0.039,0.147,0.187,0.094c0.035-0.142-0.131-0.09-0.095-0.233
			c0.078-0.041,0.161-0.064,0.228-0.096c-0.105-0.013-0.005-0.156,0.005-0.185c0.115,0.007,0.021,0.146,0.003,0.182
			c0.106-0.05,0.168-0.129,0.092-0.369c0.06,0.115,0.19-0.024,0.14,0c0.075-0.038,0.166-0.056,0.142-0.279
			c0.073,0.045,0.105,0.124,0.048,0.186c0.144,0.022,0.174-0.126,0.046-0.139c0.046-0.146,0.123,0.052,0.186,0.044
			c0.007-0.1-0.039-0.148-0.14-0.138c0.003-0.023,0.132-0.071,0.281-0.142c-0.015,0.096-0.127,0.092-0.142,0.188
			c0.193-0.008,0.176-0.231,0.232-0.375c0.124,0.012,0.155,0.097,0.141-0.095c0.137,0.041,0.053,0.071,0.047,0.187
			c0.108-0.206,0.213-0.266,0.276-0.27c-0.007-0.046,0.103-0.102,0.1-0.15c0.025,0.071,0.161,0.038,0.186-0.047
			c0.053,0.039,0.176,0.01,0.141,0c-0.012-0.039,0.017-0.044,0.045-0.046c0.043,0.009,0.043-0.02,0.046-0.048
			c0.048,0.032,0.007,0.084,0.144-0.045c0.144,0.277,0.437-0.167,0.559-0.048c0.01-0.031,0.218-0.036,0.43-0.04
			c-0.07-0.009-0.126-0.034-0.102-0.1c0.129,0.071,0.198-0.056,0.327,0.046c-0.004,0.023-0.054,0.039-0.11,0.049
			c0.159-0.007,0.295-0.018,0.342-0.049c-0.261,0.098,0.327,0.111,0.33,0.046c0.141,0.123,0.205,0.164,0.327,0.096
			c0.119,0.011,0.205,0.095,0.324,0.139c-0.029,0.142-0.1-0.044-0.187,0c0.405,0.165,0.432,0.308,0.796,0.375
			c-0.081,0.187,0.144,0.402,0.376,0.328c0.01,0.074,0.113,0.352,0.277,0.28c0.021,0.079,0.029,0.341,0.283,0.423
			c0.017,0.075,0.56,1.417,0.562,2.149C22.268,18.604,22.093,18.962,22.169,19.315z"/>
		<path style="fill:#030104;" d="M17.068,14.881c0.004,0.012,0.019,0.025,0.049,0.036C17.139,14.893,17.114,14.875,17.068,14.881z"
			/>
		<path style="fill:#030104;" d="M20.583,17.491c-0.19-0.292-0.609-0.604-0.985-0.609c-0.3,0.81-0.823,1.179-1.869,1.17
			c-0.098,0.547-0.225,0.979-0.096,1.448c0.074,0.271,0.438,0.645,0.641,0.811c0.176,0.152,0.44,0.266,0.679,0.299
			c0.232,0.03,0.613-0.046,0.83-0.144c0.274-0.119,0.504-0.362,0.668-0.602c0.388-0.567,0.503-1.295,0.314-1.953
			C20.738,17.803,20.628,17.566,20.583,17.491z"/>
	</g>
</g>
<g>
</g>
<g>
</g>
<g>
</g>
<g>
</g>
<g>
</g>
<g>
</g>
<g>
</g>
<g>
</g>
<g>
</g>
<g>
</g>
<g>
</g>
<g>
</g>
<g>
</g>
<g>
</g>
<g>
</g>
</svg>
