<?xml version="1.0" encoding="iso-8859-1"?>
<!-- Generator: Adobe Illustrator 19.0.0, SVG Export Plug-In . SVG Version: 6.00 Build 0)  -->
<svg version="1.1" id="Layer_1" xmlns="http://www.w3.org/2000/svg" xmlns:xlink="http://www.w3.org/1999/xlink" x="0px" y="0px"
	 viewBox="0 0 512.001 512.001" style="enable-background:new 0 0 512.001 512.001;" xml:space="preserve">
<g>
	<path style="fill:#A9F0F0;" d="M497.001,185.296c-61.081,0-35.573-77.546-0.371-48.977c0,0,6.632-43.875-36.222-43.875
		c-55.099,0-80.607,92.852-129.074,92.852c-61.081,0-35.573-77.546-0.371-48.977c0,0,6.632-43.875-36.222-43.875
		c-55.099,0-80.607,92.852-129.074,92.852c-61.081,0-35.573-77.546-0.371-48.977c0,0,6.632-43.875-36.222-43.875
		c-55.099,0-80.607,92.852-129.074,92.852v30h512v-30L497.001,185.296L497.001,185.296z"/>
	<path style="fill:#A9F0F0;" d="M496.63,340.581c0,0,6.632-43.875-36.222-43.875c-55.099,0-80.607,92.852-129.074,92.852
		c-61.081,0-35.573-77.546-0.371-48.977c0,0,6.632-43.875-36.222-43.875c-55.099,0-80.607,92.852-129.074,92.852
		c-61.081,0-35.573-77.546-0.371-48.977c0,0,6.632-43.875-36.222-43.875c-55.099,0-80.607,92.852-129.074,92.852v30h512v-30h-15
		C435.92,389.558,461.428,312.011,496.63,340.581z"/>
</g>
<g>
	<path style="fill:#64DDE0;" d="M512.001,185.296h-15c-61.081,0-35.573-77.546-0.371-48.977c0,0,6.632-43.875-36.222-43.875
		c-55.099,0-80.607,92.852-129.074,92.852c-61.081,0-35.573-77.546-0.371-48.977c0,0,6.632-43.875-36.222-43.875
		c-14.684,0-27.265,6.596-38.741,16.27v106.581h256v-29.999H512.001z"/>
	<path style="fill:#64DDE0;" d="M512.001,419.558v-30h-15c-61.081,0-35.573-77.546-0.371-48.977c0,0,6.632-43.875-36.222-43.875
		c-55.099,0-80.607,92.852-129.074,92.852c-61.081,0-35.573-77.546-0.371-48.977c0,0,6.632-43.875-36.222-43.875
		c-14.684,0-27.265,6.596-38.741,16.27v106.581h256.001V419.558z"/>
</g>
<g>
</g>
<g>
</g>
<g>
</g>
<g>
</g>
<g>
</g>
<g>
</g>
<g>
</g>
<g>
</g>
<g>
</g>
<g>
</g>
<g>
</g>
<g>
</g>
<g>
</g>
<g>
</g>
<g>
</g>
</svg>
